<?xml version="1.0" encoding="UTF-8"?>
<svg xmlns="http://www.w3.org/2000/svg" width="1130" height="335" viewBox="0 0 1130 335" role="img" aria-labelledby="title desc">
  <title id="title">MONC monochrome vector logo</title>
  <desc id="desc">Auto-traced single-color vector version. The sky photograph is intentionally omitted.</desc>
  <path d="M 620 44 L 620 288 L 650 288 L 651 287 L 651 100 L 650 99 L 651 98 L 652 98 L 657 103 L 657 104 L 662 109 L 662 110 L 668 116 L 668 117 L 673 122 L 673 123 L 679 129 L 679 130 L 684 135 L 684 136 L 690 142 L 690 143 L 696 149 L 696 150 L 701 155 L 701 156 L 706 161 L 706 162 L 711 167 L 711 168 L 716 173 L 716 174 L 721 179 L 721 180 L 725 184 L 725 185 L 730 190 L 730 191 L 735 196 L 735 197 L 739 201 L 739 202 L 744 207 L 744 208 L 749 213 L 749 214 L 753 218 L 753 219 L 758 224 L 758 225 L 763 230 L 763 231 L 768 236 L 768 237 L 773 242 L 773 243 L 777 247 L 777 248 L 782 253 L 782 254 L 786 258 L 786 259 L 791 264 L 791 265 L 796 270 L 796 271 L 800 275 L 800 276 L 805 281 L 805 282 L 811 288 L 838 288 L 838 44 L 805 44 L 805 228 L 804 229 L 798 223 L 798 222 L 793 217 L 793 216 L 788 211 L 788 210 L 782 204 L 782 203 L 777 198 L 777 197 L 773 193 L 773 192 L 767 186 L 767 185 L 762 180 L 762 179 L 758 175 L 758 174 L 752 168 L 752 167 L 748 163 L 748 162 L 743 157 L 743 156 L 737 150 L 737 149 L 733 145 L 733 144 L 728 139 L 728 138 L 722 132 L 722 131 L 717 126 L 717 125 L 712 120 L 712 119 L 708 115 L 708 114 L 702 108 L 702 107 L 697 102 L 697 101 L 692 96 L 692 95 L 687 90 L 687 89 L 682 84 L 682 83 L 677 78 L 677 77 L 672 72 L 672 71 L 667 66 L 667 65 L 662 60 L 662 59 L 657 54 L 657 53 L 652 48 L 652 47 L 649 44 Z
    M 29 44 L 28 45 L 29 46 L 29 288 L 61 288 L 61 105 L 62 104 L 63 104 L 64 105 L 64 106 L 67 109 L 67 110 L 70 113 L 70 114 L 73 117 L 73 118 L 75 120 L 75 121 L 77 123 L 77 124 L 80 127 L 80 128 L 83 131 L 83 132 L 85 134 L 85 135 L 88 138 L 88 139 L 91 142 L 91 143 L 94 146 L 94 147 L 97 150 L 97 151 L 99 153 L 99 154 L 102 157 L 102 158 L 105 161 L 105 162 L 108 165 L 108 166 L 111 169 L 111 170 L 113 172 L 113 173 L 116 176 L 116 177 L 118 179 L 118 180 L 121 183 L 121 184 L 124 187 L 124 188 L 127 191 L 127 192 L 129 194 L 129 195 L 132 198 L 132 199 L 134 201 L 134 202 L 137 205 L 137 206 L 140 209 L 140 210 L 142 212 L 142 213 L 145 216 L 145 217 L 148 220 L 148 221 L 151 224 L 151 225 L 153 227 L 153 228 L 156 231 L 156 232 L 158 234 L 158 235 L 160 237 L 160 238 L 163 241 L 163 242 L 165 244 L 165 245 L 168 248 L 168 249 L 169 249 L 172 246 L 172 245 L 175 242 L 175 241 L 177 239 L 177 238 L 179 236 L 179 235 L 182 232 L 182 231 L 184 229 L 184 228 L 187 225 L 187 224 L 189 222 L 189 221 L 192 218 L 192 217 L 194 215 L 194 214 L 197 211 L 197 210 L 199 208 L 199 207 L 202 204 L 202 203 L 205 200 L 205 199 L 207 197 L 207 196 L 210 193 L 210 192 L 213 189 L 213 188 L 216 185 L 216 184 L 218 182 L 218 181 L 221 178 L 221 177 L 224 174 L 224 173 L 226 171 L 226 170 L 229 167 L 229 166 L 232 163 L 232 162 L 235 159 L 235 158 L 237 156 L 237 155 L 240 152 L 240 151 L 242 149 L 242 148 L 245 145 L 245 144 L 248 141 L 248 140 L 250 138 L 250 137 L 253 134 L 253 133 L 256 130 L 256 129 L 258 127 L 258 126 L 261 123 L 261 122 L 264 119 L 264 118 L 266 116 L 266 115 L 269 112 L 269 111 L 271 109 L 271 108 L 275 104 L 276 105 L 276 288 L 309 288 L 309 44 L 279 44 L 278 45 L 278 46 L 276 48 L 276 49 L 274 51 L 274 52 L 271 55 L 271 56 L 268 59 L 268 60 L 266 62 L 266 63 L 263 66 L 263 67 L 261 69 L 261 70 L 258 73 L 258 74 L 256 76 L 256 77 L 254 79 L 254 80 L 251 83 L 251 84 L 249 86 L 249 87 L 246 90 L 246 91 L 244 93 L 244 94 L 242 96 L 242 97 L 239 100 L 239 101 L 237 103 L 237 104 L 234 107 L 234 108 L 232 110 L 232 111 L 230 113 L 230 114 L 227 117 L 227 118 L 225 120 L 225 121 L 222 124 L 222 125 L 219 128 L 219 129 L 217 131 L 217 132 L 214 135 L 214 136 L 211 139 L 211 140 L 209 142 L 209 143 L 206 146 L 206 147 L 204 149 L 204 150 L 201 153 L 201 154 L 199 156 L 199 157 L 196 160 L 196 161 L 193 164 L 193 165 L 191 167 L 191 168 L 188 171 L 188 172 L 186 174 L 186 175 L 184 177 L 184 178 L 181 181 L 181 182 L 179 184 L 179 185 L 177 187 L 177 188 L 174 191 L 174 192 L 172 194 L 172 195 L 169 198 L 168 197 L 168 196 L 166 194 L 166 193 L 164 191 L 164 190 L 161 187 L 161 186 L 159 184 L 159 183 L 157 181 L 157 180 L 154 177 L 154 176 L 152 174 L 152 173 L 150 171 L 150 170 L 147 167 L 147 166 L 145 164 L 145 163 L 143 161 L 143 160 L 140 157 L 140 156 L 137 153 L 137 152 L 135 150 L 135 149 L 133 147 L 133 146 L 130 143 L 130 142 L 127 139 L 127 138 L 124 135 L 124 134 L 122 132 L 122 131 L 119 128 L 119 127 L 117 125 L 117 124 L 114 121 L 114 120 L 112 118 L 112 117 L 110 115 L 110 114 L 107 111 L 107 110 L 104 107 L 104 106 L 102 104 L 102 103 L 100 101 L 100 100 L 97 97 L 97 96 L 95 94 L 95 93 L 92 90 L 92 89 L 90 87 L 90 86 L 87 83 L 87 82 L 85 80 L 85 79 L 83 77 L 83 76 L 80 73 L 80 72 L 78 70 L 78 69 L 75 66 L 75 65 L 73 63 L 73 62 L 70 59 L 70 58 L 68 56 L 68 55 L 65 52 L 65 51 L 63 49 L 63 48 L 61 46 L 61 45 L 60 44 Z
    M 989 42 L 988 43 L 981 43 L 980 44 L 976 44 L 975 45 L 971 45 L 970 46 L 968 46 L 967 47 L 964 47 L 963 48 L 961 48 L 960 49 L 959 49 L 958 50 L 956 50 L 955 51 L 953 51 L 952 52 L 951 52 L 950 53 L 949 53 L 948 54 L 947 54 L 946 55 L 944 55 L 942 57 L 941 57 L 940 58 L 939 58 L 938 59 L 937 59 L 936 60 L 935 60 L 933 62 L 932 62 L 931 63 L 930 63 L 928 65 L 927 65 L 924 68 L 923 68 L 919 72 L 918 72 L 902 88 L 902 89 L 898 93 L 898 94 L 896 96 L 896 97 L 893 100 L 893 101 L 892 102 L 892 103 L 890 105 L 890 106 L 889 107 L 889 108 L 887 110 L 887 111 L 886 112 L 886 113 L 885 114 L 885 116 L 884 117 L 884 118 L 883 119 L 883 120 L 882 121 L 882 122 L 881 123 L 881 125 L 880 126 L 880 128 L 879 129 L 879 130 L 878 131 L 878 134 L 877 135 L 877 137 L 876 138 L 876 142 L 875 143 L 875 147 L 874 148 L 874 152 L 873 153 L 873 181 L 874 182 L 874 188 L 875 189 L 875 193 L 876 194 L 876 197 L 877 198 L 877 201 L 878 202 L 878 204 L 879 205 L 879 207 L 880 208 L 880 210 L 881 211 L 881 212 L 882 213 L 882 214 L 883 215 L 883 217 L 884 218 L 884 219 L 885 220 L 885 221 L 886 222 L 886 223 L 887 224 L 887 225 L 888 226 L 888 227 L 890 229 L 890 230 L 892 232 L 892 233 L 893 234 L 893 235 L 896 238 L 896 239 L 898 241 L 898 242 L 902 246 L 902 247 L 917 262 L 918 262 L 922 266 L 923 266 L 925 268 L 926 268 L 928 270 L 929 270 L 931 272 L 932 272 L 934 274 L 935 274 L 936 275 L 937 275 L 938 276 L 939 276 L 940 277 L 941 277 L 942 278 L 943 278 L 944 279 L 945 279 L 946 280 L 947 280 L 948 281 L 949 281 L 950 282 L 952 282 L 953 283 L 954 283 L 955 284 L 957 284 L 958 285 L 960 285 L 961 286 L 964 286 L 965 287 L 967 287 L 968 288 L 972 288 L 973 289 L 977 289 L 978 290 L 983 290 L 984 291 L 992 291 L 993 292 L 1010 292 L 1011 291 L 1021 291 L 1022 290 L 1027 290 L 1028 289 L 1032 289 L 1033 288 L 1036 288 L 1037 287 L 1040 287 L 1041 286 L 1043 286 L 1044 285 L 1047 285 L 1048 284 L 1050 284 L 1051 283 L 1052 283 L 1053 282 L 1055 282 L 1056 281 L 1057 281 L 1058 280 L 1059 280 L 1060 279 L 1061 279 L 1062 278 L 1063 278 L 1064 277 L 1065 277 L 1066 276 L 1067 276 L 1068 275 L 1069 275 L 1071 273 L 1072 273 L 1073 272 L 1074 272 L 1077 269 L 1078 269 L 1081 266 L 1082 266 L 1091 257 L 1092 257 L 1094 255 L 1094 254 L 1099 249 L 1078 228 L 1077 228 L 1065 240 L 1064 240 L 1061 243 L 1060 243 L 1058 245 L 1057 245 L 1055 247 L 1054 247 L 1052 249 L 1051 249 L 1050 250 L 1049 250 L 1048 251 L 1047 251 L 1046 252 L 1045 252 L 1044 253 L 1042 253 L 1041 254 L 1040 254 L 1039 255 L 1038 255 L 1037 256 L 1035 256 L 1034 257 L 1032 257 L 1031 258 L 1028 258 L 1027 259 L 1024 259 L 1023 260 L 1018 260 L 1017 261 L 1009 261 L 1008 262 L 996 262 L 995 261 L 987 261 L 986 260 L 982 260 L 981 259 L 977 259 L 976 258 L 973 258 L 972 257 L 970 257 L 969 256 L 967 256 L 966 255 L 965 255 L 964 254 L 962 254 L 961 253 L 960 253 L 959 252 L 958 252 L 957 251 L 956 251 L 955 250 L 954 250 L 952 248 L 951 248 L 950 247 L 949 247 L 947 245 L 946 245 L 942 241 L 941 241 L 937 237 L 936 237 L 930 231 L 930 230 L 925 225 L 925 224 L 922 221 L 922 220 L 920 218 L 920 217 L 919 216 L 919 215 L 918 214 L 918 213 L 917 212 L 917 211 L 915 209 L 915 207 L 914 206 L 914 205 L 913 204 L 913 203 L 912 202 L 912 200 L 911 199 L 911 197 L 910 196 L 910 194 L 909 193 L 909 190 L 908 189 L 908 186 L 907 185 L 907 179 L 906 178 L 906 157 L 907 156 L 907 150 L 908 149 L 908 146 L 909 145 L 909 142 L 910 141 L 910 138 L 911 137 L 911 136 L 912 135 L 912 133 L 913 132 L 913 131 L 914 130 L 914 128 L 915 127 L 915 126 L 916 125 L 916 124 L 917 123 L 917 122 L 919 120 L 919 119 L 920 118 L 920 117 L 922 115 L 922 114 L 924 112 L 924 111 L 928 107 L 928 106 L 940 94 L 941 94 L 945 90 L 946 90 L 948 88 L 949 88 L 951 86 L 952 86 L 953 85 L 954 85 L 955 84 L 956 84 L 957 83 L 958 83 L 959 82 L 960 82 L 961 81 L 962 81 L 963 80 L 964 80 L 965 79 L 967 79 L 968 78 L 969 78 L 970 77 L 973 77 L 974 76 L 976 76 L 977 75 L 980 75 L 981 74 L 985 74 L 986 73 L 993 73 L 994 72 L 1011 72 L 1012 73 L 1019 73 L 1020 74 L 1024 74 L 1025 75 L 1028 75 L 1029 76 L 1032 76 L 1033 77 L 1035 77 L 1036 78 L 1037 78 L 1038 79 L 1040 79 L 1041 80 L 1042 80 L 1043 81 L 1044 81 L 1045 82 L 1046 82 L 1047 83 L 1048 83 L 1049 84 L 1050 84 L 1051 85 L 1052 85 L 1054 87 L 1055 87 L 1057 89 L 1058 89 L 1060 91 L 1061 91 L 1064 94 L 1065 94 L 1072 101 L 1073 101 L 1077 105 L 1078 105 L 1086 97 L 1086 96 L 1096 86 L 1096 85 L 1099 82 L 1094 77 L 1093 77 L 1086 70 L 1085 70 L 1081 66 L 1080 66 L 1078 64 L 1077 64 L 1075 62 L 1074 62 L 1072 60 L 1071 60 L 1070 59 L 1069 59 L 1067 57 L 1066 57 L 1065 56 L 1064 56 L 1063 55 L 1062 55 L 1061 54 L 1060 54 L 1059 53 L 1058 53 L 1057 52 L 1055 52 L 1054 51 L 1053 51 L 1052 50 L 1050 50 L 1049 49 L 1047 49 L 1046 48 L 1044 48 L 1043 47 L 1041 47 L 1040 46 L 1037 46 L 1036 45 L 1033 45 L 1032 44 L 1028 44 L 1027 43 L 1019 43 L 1018 42 Z
    M 442 30 L 441 31 L 435 31 L 434 32 L 431 32 L 430 33 L 427 33 L 426 34 L 424 34 L 423 35 L 421 35 L 420 36 L 419 36 L 418 37 L 416 37 L 415 38 L 414 38 L 413 39 L 412 39 L 411 40 L 410 40 L 408 42 L 407 42 L 405 44 L 404 44 L 402 46 L 401 46 L 399 48 L 398 48 L 385 61 L 385 62 L 382 65 L 382 66 L 380 68 L 380 69 L 379 70 L 379 71 L 377 73 L 377 74 L 376 75 L 376 76 L 375 77 L 375 78 L 374 79 L 374 80 L 373 81 L 373 83 L 372 84 L 372 85 L 371 86 L 371 88 L 370 89 L 370 92 L 369 93 L 369 96 L 368 97 L 368 101 L 367 102 L 367 234 L 368 235 L 368 239 L 369 240 L 369 243 L 370 244 L 370 247 L 371 248 L 371 250 L 372 251 L 372 253 L 373 254 L 373 255 L 374 256 L 374 257 L 375 258 L 375 260 L 377 262 L 377 263 L 378 264 L 378 265 L 379 266 L 379 267 L 381 269 L 381 270 L 383 272 L 383 273 L 388 278 L 388 279 L 394 285 L 395 285 L 399 289 L 400 289 L 403 292 L 404 292 L 405 293 L 406 293 L 408 295 L 409 295 L 410 296 L 411 296 L 412 297 L 413 297 L 414 298 L 415 298 L 416 299 L 417 299 L 418 300 L 420 300 L 421 301 L 422 301 L 423 302 L 426 302 L 427 303 L 429 303 L 430 304 L 434 304 L 435 305 L 441 305 L 442 306 L 490 306 L 491 305 L 497 305 L 498 304 L 502 304 L 503 303 L 505 303 L 506 302 L 508 302 L 509 301 L 511 301 L 512 300 L 514 300 L 515 299 L 516 299 L 517 298 L 518 298 L 519 297 L 520 297 L 521 296 L 522 296 L 524 294 L 525 294 L 526 293 L 527 293 L 529 291 L 530 291 L 533 288 L 534 288 L 547 275 L 547 274 L 550 271 L 550 270 L 552 268 L 552 267 L 554 265 L 554 264 L 555 263 L 555 262 L 556 261 L 556 260 L 557 259 L 557 258 L 558 257 L 558 256 L 559 255 L 559 253 L 560 252 L 560 251 L 561 250 L 561 248 L 562 247 L 562 244 L 563 243 L 563 240 L 564 239 L 564 234 L 565 233 L 565 104 L 564 103 L 564 98 L 563 97 L 563 94 L 562 93 L 562 90 L 561 89 L 561 87 L 560 86 L 560 84 L 559 83 L 559 82 L 558 81 L 558 79 L 557 78 L 557 77 L 556 76 L 556 75 L 555 74 L 555 73 L 553 71 L 553 70 L 552 69 L 552 68 L 550 66 L 550 65 L 547 62 L 547 61 L 535 49 L 534 49 L 530 45 L 529 45 L 527 43 L 526 43 L 525 42 L 524 42 L 522 40 L 521 40 L 520 39 L 519 39 L 518 38 L 517 38 L 516 37 L 515 37 L 514 36 L 512 36 L 511 35 L 510 35 L 509 34 L 506 34 L 505 33 L 503 33 L 502 32 L 498 32 L 497 31 L 491 31 L 490 30 Z
    M 439 54 L 440 53 L 493 53 L 494 54 L 496 54 L 497 55 L 500 55 L 501 56 L 502 56 L 503 57 L 505 57 L 506 58 L 507 58 L 508 59 L 509 59 L 510 60 L 511 60 L 512 61 L 513 61 L 516 64 L 517 64 L 521 68 L 522 68 L 526 72 L 526 73 L 531 78 L 531 79 L 533 81 L 533 82 L 535 84 L 535 85 L 536 86 L 536 87 L 537 88 L 537 89 L 538 90 L 538 91 L 539 92 L 539 94 L 540 95 L 540 97 L 541 98 L 541 100 L 542 101 L 542 105 L 543 106 L 543 113 L 544 114 L 544 227 L 543 228 L 543 234 L 542 235 L 542 238 L 541 239 L 541 241 L 540 242 L 540 244 L 539 245 L 539 247 L 538 248 L 538 249 L 537 250 L 537 251 L 536 252 L 536 253 L 534 255 L 534 256 L 533 257 L 533 258 L 530 261 L 530 262 L 520 272 L 519 272 L 516 275 L 515 275 L 514 276 L 513 276 L 511 278 L 510 278 L 509 279 L 508 279 L 507 280 L 506 280 L 505 281 L 503 281 L 502 282 L 500 282 L 499 283 L 497 283 L 496 284 L 492 284 L 491 285 L 440 285 L 439 284 L 436 284 L 435 283 L 432 283 L 431 282 L 430 282 L 429 281 L 427 281 L 426 280 L 425 280 L 424 279 L 423 279 L 422 278 L 421 278 L 420 277 L 419 277 L 417 275 L 416 275 L 413 272 L 412 272 L 400 260 L 400 259 L 398 257 L 398 256 L 396 254 L 396 253 L 395 252 L 395 251 L 394 250 L 394 249 L 393 248 L 393 247 L 392 246 L 392 244 L 391 243 L 391 241 L 390 240 L 390 238 L 389 237 L 389 233 L 388 232 L 388 225 L 387 224 L 387 183 L 388 182 L 388 175 L 387 174 L 387 114 L 388 113 L 388 106 L 389 105 L 389 101 L 390 100 L 390 98 L 391 97 L 391 95 L 392 94 L 392 92 L 393 91 L 393 90 L 394 89 L 394 88 L 395 87 L 395 86 L 396 85 L 396 84 L 398 82 L 398 81 L 401 78 L 401 77 L 413 65 L 414 65 L 416 63 L 417 63 L 419 61 L 420 61 L 421 60 L 422 60 L 423 59 L 424 59 L 425 58 L 426 58 L 427 57 L 429 57 L 430 56 L 432 56 L 433 55 L 435 55 L 436 54 Z
    M 446 66 L 445 67 L 444 67 L 442 69 L 442 71 L 441 72 L 441 74 L 442 75 L 442 76 L 445 79 L 485 79 L 486 78 L 487 78 L 489 76 L 489 70 L 485 66 Z" fill="#000000" fill-rule="evenodd"/>
</svg>
